<mxfile host="app.diagrams.net" modified="2024-05-12T15:34:04.130Z" agent="Mozilla/5.0 (Windows NT 10.0; Win64; x64) AppleWebKit/537.36 (KHTML, like Gecko) Chrome/124.0.0.0 Safari/537.36" version="24.2.5" etag="C8rkJyCzVXsvBNnl6ekx" type="github">
  <diagram name="Page-1" id="T6J5IRaTQ1EGL3O1SXWH">
    <mxGraphModel>
      <root>
        <mxCell id="0" />
        <mxCell id="1" parent="0" />
      </root>
    </mxGraphModel>
  </diagram>
</mxfile>
